<svg transform="scale(1)" id="_0904_Completed" xmlns="http://www.w3.org/2000/svg" viewBox="0 0 500 500" class="show_show__wrapper__graphic__5Waiy "><title>React</title><g id="check"><rect x="260.41" y="130.44" width="34.41" height="30.64" fill="#fff" stroke-width="0"></rect><path d="M294.82,161.58h-34.41c-.28,0-.5-.22-.5-.5v-30.64c0-.28.22-.5.5-.5h34.41c.28,0,.5.22.5.5v30.64c0,.28-.22.5-.5.5ZM260.91,160.58h33.41v-29.64h-33.41v29.64Z" fill="#732a09" stroke-width="0"></path><path d="M277.87,154.97c-.95,0-1.88-.41-2.53-1.18l-9.23-11.05c-1.17-1.4-.98-3.48.42-4.65,1.4-1.17,3.48-.98,4.65.42l7.22,8.66,20.04-14.97c1.46-1.09,3.53-.79,4.62.67,1.09,1.46.79,3.53-.67,4.62l-22.55,16.83c-.59.44-1.28.65-1.97.65Z" fill="#f75454" stroke-width="0"></path><path d="M277.87,155.47c-1.13,0-2.19-.5-2.92-1.36l-9.23-11.05c-1.34-1.61-1.13-4.01.48-5.35,1.61-1.34,4.01-1.13,5.35.48l6.92,8.29,19.66-14.68c1.68-1.25,4.06-.91,5.32.77.61.81.86,1.81.72,2.82-.15,1-.67,1.89-1.49,2.5l-22.55,16.83c-.66.49-1.45.75-2.27.75ZM268.64,137.82c-.63,0-1.27.21-1.79.65-1.18.99-1.34,2.76-.35,3.94l9.23,11.05c.92,1.1,2.66,1.31,3.82.45l22.55-16.83c.6-.45.99-1.1,1.1-1.84.11-.74-.08-1.48-.53-2.08-.92-1.24-2.68-1.49-3.92-.57l-20.04,14.96c-.21.16-.51.12-.68-.08l-7.22-8.66c-.55-.66-1.35-1-2.15-1Z" fill="#732a09" stroke-width="0"></path><path d="M361.51,137.52h-47.88c-.28,0-.5-.22-.5-.5s.22-.5.5-.5h47.88c.28,0,.5.22.5.5s-.22.5-.5.5Z" fill="#732a09" stroke-width="0"></path><path d="M415.27,148.6h-101.65c-.28,0-.5-.22-.5-.5s.22-.5.5-.5h101.65c.28,0,.5.22.5.5s-.22.5-.5.5Z" fill="#732a09" stroke-width="0"></path><rect x="260.41" y="65.4" width="34.41" height="30.64" fill="#fff" stroke-width="0"></rect><path d="M294.82,96.54h-34.41c-.28,0-.5-.22-.5-.5v-30.64c0-.28.22-.5.5-.5h34.41c.28,0,.5.22.5.5v30.64c0,.28-.22.5-.5.5ZM260.91,95.54h33.41v-29.64h-33.41v29.64Z" fill="#732a09" stroke-width="0"></path><path d="M277.87,89.93c-.95,0-1.88-.41-2.53-1.18l-9.23-11.05c-1.17-1.4-.98-3.48.42-4.65,1.4-1.17,3.48-.98,4.65.42l7.22,8.66,20.04-14.97c1.46-1.09,3.53-.79,4.62.67,1.09,1.46.79,3.53-.67,4.62l-22.55,16.83c-.59.44-1.28.65-1.97.65Z" fill="#f75454" stroke-width="0"></path><path d="M277.87,90.43c-1.13,0-2.19-.5-2.92-1.36l-9.23-11.05c-1.34-1.61-1.13-4.01.48-5.35,1.61-1.34,4.01-1.13,5.35.48l6.92,8.29,19.66-14.68c1.68-1.25,4.06-.91,5.32.77,1.25,1.68.91,4.06-.77,5.32l-22.55,16.83c-.66.49-1.45.75-2.27.75ZM268.64,72.78c-.63,0-1.27.21-1.79.65-1.18.99-1.34,2.76-.35,3.94l9.23,11.05c.92,1.1,2.66,1.31,3.82.45l22.55-16.83c1.24-.92,1.49-2.68.57-3.92-.92-1.24-2.68-1.49-3.92-.57l-20.04,14.96c-.21.16-.51.12-.68-.08l-7.22-8.66c-.55-.66-1.35-1-2.15-1Z" fill="#732a09" stroke-width="0"></path><path d="M361.51,72.48h-47.88c-.28,0-.5-.22-.5-.5s.22-.5.5-.5h47.88c.28,0,.5.22.5.5s-.22.5-.5.5Z" fill="#732a09" stroke-width="0"></path><path d="M415.27,83.56h-101.65c-.28,0-.5-.22-.5-.5s.22-.5.5-.5h101.65c.28,0,.5.22.5.5s-.22.5-.5.5Z" fill="#732a09" stroke-width="0"></path></g><g id="character"><path d="M325.61,189.36l-29.46-41.31s4.51.61,5.34-2.29l29.6,39.93c-1.48,2.15-4.31,3.28-5.48,3.67Z" fill="#fff" stroke-width="0"></path><path d="M325.61,189.86c-.16,0-.31-.08-.41-.21l-29.46-41.31c-.12-.16-.12-.38-.02-.55.1-.17.3-.27.5-.24.04,0,4.09.52,4.8-1.93.05-.18.2-.32.39-.35.19-.03.38.04.49.19l29.6,39.93c.13.17.13.41.01.58-1.57,2.29-4.53,3.46-5.74,3.86-.05.02-.11.03-.16.03ZM297.16,148.6l28.64,40.16c1.19-.43,3.37-1.4,4.67-3.08l-28.87-38.95c-.99,1.59-3.13,1.86-4.44,1.86Z" fill="#732a09" stroke-width="0"></path><path d="M308.28,239.54c-1.27-40.2-3.47-49.56-6.76-58.42-3.29-8.85-3.39-22.61-2.07-27.11,1.32-4.5,4.81-5.28,6.47-3.8s3.93,16.63,3.93,16.63l19.94,28.37s1.03,16.59,4.03,25.9c3,9.31,4.59,16.26,4.59,16.26l-30.13,2.17Z" fill="#fff" stroke-width="0"></path><path d="M308.28,240.04c-.12,0-.24-.05-.33-.13-.1-.09-.16-.22-.17-.36-1.28-40.73-3.6-49.83-6.72-58.26-3.23-8.69-3.49-22.63-2.08-27.42.72-2.46,2.18-4.17,4.01-4.69,1.21-.34,2.43-.1,3.27.65,1.68,1.5,3.65,14,4.08,16.81l19.87,28.27c.05.08.08.16.09.26.01.17,1.06,16.63,4.01,25.78,2.97,9.23,4.58,16.24,4.6,16.31.03.14,0,.29-.09.41s-.22.19-.37.2l-30.13,2.17s-.02,0-.04,0ZM304.05,150.03c-.26,0-.53.04-.8.11-1.49.42-2.7,1.89-3.32,4.01-1.37,4.67-1.1,18.28,2.06,26.79,3.15,8.47,5.48,17.62,6.77,58.05l29.03-2.09c-.44-1.84-1.97-7.98-4.44-15.65-2.84-8.81-3.94-24.23-4.05-25.88l-19.85-28.25c-.04-.06-.07-.14-.09-.21-.87-5.79-2.67-15.34-3.77-16.33-.41-.36-.95-.55-1.53-.55Z" fill="#732a09" stroke-width="0"></path><path d="M304.63,150.45l-3.13-4.69,6.37,2.91s5.42.29,8.79,2.04c3.37,1.74,6.77,6.84,6.77,6.84,0,0,2.68.53,4.81,3.1s2.63,4.27,2.63,4.27c0,0,4.8,2.26,5.03,6.39.23,4.12-3.64,15.95-3.64,15.95l-27.63-36.8Z" fill="#fff" stroke-width="0"></path><path d="M332.26,187.75c-.16,0-.3-.07-.4-.2l-27.63-36.8s-.01-.01-.02-.02l-3.13-4.69c-.12-.19-.11-.43.04-.6.15-.17.39-.22.59-.13l6.28,2.87c.77.05,5.68.42,8.89,2.09,3.14,1.63,6.22,5.93,6.85,6.84.7.18,3,.93,4.89,3.22,1.76,2.12,2.44,3.68,2.65,4.23.94.49,4.9,2.78,5.12,6.71.24,4.17-3.5,15.65-3.66,16.13-.06.18-.21.31-.39.34-.03,0-.05,0-.08,0ZM305.04,150.16l27.04,36.01c.89-2.85,3.51-11.52,3.32-14.84-.21-3.77-4.7-5.94-4.74-5.96-.13-.06-.23-.17-.27-.31,0-.02-.51-1.66-2.53-4.09-1.98-2.39-4.5-2.92-4.53-2.93-.13-.03-.24-.1-.32-.21-.03-.05-3.37-5.01-6.59-6.67-3.23-1.68-8.53-1.98-8.58-1.98-.06,0-.12-.02-.18-.04l-4.77-2.18,2.15,3.22Z" fill="#732a09" stroke-width="0"></path><path d="M321.17,167.36c-.21,0-.41-.14-.48-.35l-.47-1.53c-2.58-8.33-3.76-12.13-6.66-13.5-3.26-1.53-5.89-2.86-5.91-2.88-.25-.12-.35-.43-.22-.67.13-.25.43-.34.67-.22.03.01,2.64,1.33,5.89,2.86,3.31,1.56,4.52,5.49,7.19,14.1l.47,1.53c.08.26-.07.54-.33.63-.05.02-.1.02-.15.02Z" fill="#732a09" stroke-width="0"></path><path d="M327.76,168.74c-.23,0-.43-.16-.49-.38-.02-.07-1.57-6.56-4.27-10.53-.16-.23-.1-.54.13-.69.23-.16.54-.1.69.13,2.8,4.12,4.35,10.59,4.41,10.86.06.27-.1.54-.37.6-.04,0-.08.01-.12.01Z" fill="#732a09" stroke-width="0"></path><path d="M332.19,173.54s-.01,0-.02,0c-.28,0-.49-.24-.48-.52,0-.04.11-3.52-1.3-7.96-.08-.26.06-.54.33-.63.26-.08.54.06.63.33,1.47,4.62,1.35,8.15,1.35,8.3-.01.27-.23.48-.5.48Z" fill="#732a09" stroke-width="0"></path><path d="M296.15,148.05l-2.95-7.93c-.15-.52.45-.91.86-.57l7.43,6.21c-.84,2.91-5.34,2.29-5.34,2.29Z" fill="#f65454" stroke-width="0"></path><path d="M297.15,148.6c-.59,0-1.01-.05-1.06-.06-.18-.02-.34-.15-.4-.32l-2.95-7.93c-.14-.48.03-.95.42-1.2.38-.25.88-.22,1.23.07l7.43,6.21c.15.13.21.33.16.52-.68,2.36-3.32,2.71-4.83,2.71ZM296.51,147.58c.9.06,3.61.1,4.39-1.66l-7.16-5.99,2.77,7.65Z" fill="#732a09" stroke-width="0"></path><path d="M300.15,204.2c6.82-3.49,21.37-9.22,35.72-3.96,2.35.86,4.04,2.93,4.52,5.38,2.92,14.88,13.09,70.5,7.52,97.26-6.45,31.06-80.67,20.17-85.51,18.55l2.99,114.65H102.15l-.17-24.29s-26.62-27.83-26.22-66.15,39.41-99.63,65.63-118.18c26.22-18.55,73.01-10.08,93.18.81,20.17,10.89,61.58,37.51,61.58,37.51v-55.08c0-2.75,1.55-5.24,4-6.5Z" fill="#f35454" stroke-width="0"></path><path d="M339.64,201.89c-1.32,1.3-3.4,1.29-4.72.11-.17-.15-.33-.33-.48-.52l-4.64-6.26-4.18-5.86c1.17-.39,4.01-1.52,5.48-3.67l1.16,1.56,7.71,10.06c1.07,1.39.92,3.36-.33,4.59Z" fill="#f65454" stroke-width="0"></path><path d="M337.22,203.38c-.94,0-1.89-.33-2.64-1-.2-.17-.38-.37-.55-.59l-4.65-6.27-4.18-5.86c-.09-.13-.12-.29-.07-.45.05-.15.17-.27.32-.32,1.11-.37,3.83-1.44,5.23-3.48.09-.13.24-.21.4-.22.16-.02.31.07.41.2l1.16,1.56,7.7,10.05c1.22,1.59,1.05,3.85-.37,5.25-.76.75-1.77,1.13-2.77,1.13ZM326.4,189.6l3.79,5.32,4.64,6.25c.12.16.26.31.41.45,1.16,1.04,2.94,1,4.04-.09h0c1.07-1.05,1.19-2.74.28-3.93l-8.48-11.09c-1.37,1.62-3.41,2.6-4.69,3.09Z" fill="#732a09" stroke-width="0"></path><path d="M257.05,320.98c-.07,0-.15-.02-.22-.05-15.85-7.67-29-19.98-37.02-34.66-7.2-13.17-9.23-26.43-5.45-35.46.11-.25.4-.37.65-.27.25.11.38.4.27.65-3.61,8.62-1.54,21.88,5.41,34.59,7.92,14.51,20.91,26.67,36.58,34.24.25.12.35.42.23.67-.09.18-.26.28-.45.28Z" fill="#732a09" stroke-width="0"></path><path d="M106.03,403.24c-.28,0-.5-.22-.5-.5,0-52.93,4.86-88.53,8.93-109.08,4.42-22.3,8.91-32.21,8.96-32.31.11-.25.41-.36.66-.25.25.12.36.41.25.66-.18.39-17.79,39.92-17.79,140.97,0,.28-.22.5-.5.5Z" fill="#732a09" stroke-width="0"></path><path d="M239.2,149.99c6.94-13.12,6.31-25.12,4.73-27.64-1.58-2.53-37.58-26.53-72.01-3.16-34.42,23.37-55.9,89.16-52.43,96.85,3.47,7.69,33.79,25.37,60.32,23.16,26.53-2.21,40.11-11.05,40.11-11.05,0,0-6.63-5.58-9.65-12.22-3.02-6.64,28.92-65.93,28.92-65.93Z" fill="#fff" stroke-width="0"></path><path d="M175.14,239.88c-25.65,0-52.8-16.35-56.09-23.65-3.53-7.8,17.55-73.67,52.6-97.47,17.21-11.69,34.57-11.24,46.1-8.81,14.87,3.14,25.68,10.63,26.61,12.12,1.57,2.51,2.47,14.57-4.71,28.14,0,0,0,0,0,0-8.85,16.43-31.3,60.23-28.91,65.49,2.94,6.46,9.45,11.99,9.52,12.04.12.1.19.26.18.41,0,.16-.09.3-.23.39-.14.09-13.99,8.94-40.34,11.13-1.56.13-3.14.19-4.72.19ZM204.58,109.57c-9.69,0-21.07,2.35-32.38,10.03-19.71,13.38-33.68,39.64-40.25,54.1-9.17,20.18-13.69,38.4-12,42.13,3.42,7.57,33.28,25.08,59.82,22.87,23.1-1.93,36.46-8.99,39.31-10.63-1.64-1.48-6.69-6.29-9.26-11.94-.49-1.08-1.99-4.36,13.33-35.88,7.49-15.42,15.46-30.22,15.6-30.49,6.89-13.03,6.18-24.85,4.75-27.15-.85-1.36-11.63-8.64-25.97-11.67-3.76-.79-8.15-1.37-12.96-1.37ZM239.2,149.99h0,0Z" fill="#732a09" stroke-width="0"></path><path d="M236.65,140.54s5.43,19.01,7.02,29.88c0,0,6.11.02,6.82,4.44.71,4.42-6.92,5.56-6.92,5.56,0,0,2.36,19.68-6.06,28.38-8.41,8.7-27.24,7.13-27.24,7.13,0,0-13.2-22.71-1.57-40.54,11.63-17.83,23.06-26.52,27.94-34.84Z" fill="#fff" stroke-width="0"></path><path d="M213.86,216.54c-2.06,0-3.42-.11-3.62-.12-.16-.01-.31-.11-.39-.25-.13-.23-13.22-23.19-1.55-41.07,6.61-10.14,13.19-17.36,18.47-23.17,4.12-4.52,7.37-8.09,9.46-11.65.1-.17.3-.27.49-.24.2.03.36.17.42.36.05.19,5.33,18.7,6.97,29.54,1.47.11,6.23.78,6.88,4.83.17,1.05-.06,2.02-.69,2.88-1.51,2.07-4.92,2.92-6.17,3.17.31,3.12,1.61,20.19-6.24,28.31-6.3,6.51-18.07,7.4-24.02,7.4ZM210.58,215.44c2.3.14,18.96.88,26.57-7,8.15-8.43,5.94-27.77,5.92-27.97-.03-.27.16-.51.42-.55.04,0,4.4-.68,5.99-2.85.47-.65.64-1.34.51-2.13-.64-3.95-6.28-4.02-6.33-4.02-.25,0-.46-.18-.49-.43-1.34-9.22-5.52-24.51-6.69-28.72-2.13,3.32-5.19,6.68-8.97,10.84-5.26,5.78-11.8,12.97-18.37,23.04-10.71,16.42.13,37.37,1.45,39.79Z" fill="#732a09" stroke-width="0"></path><path d="M233.8,193.48c-2.2,0-8.35-.67-11.59-7.82-.11-.25,0-.55.25-.66.25-.11.55,0,.66.25,3.67,8.08,11.05,7.25,11.37,7.21.27-.03.52.16.56.43.03.27-.16.52-.43.56-.02,0-.31.04-.81.04Z" fill="#732a09" stroke-width="0"></path><path d="M238.78,158.68c-4.32-2.85-9.97-.15-13.49,2.91-.44.41-1.12-.23-.73-.68,2.54-3.37,6.87-5.61,11.16-4.87,1.48.3,2.94.73,3.89,2.08.33.55-.44,1.05-.83.56h0Z" fill="#732a09" stroke-width="0"></path><path d="M231.85,167.6c.25,2.18,1.68,3.8,3.18,3.62,1.52-.18,2.52-2.07,2.27-4.25-.07-.65-.27-1.26-.53-1.79l-2.43,1.7.86-3.33c-.35-.17-.7-.23-1.07-.19-1.5.17-2.52,2.07-2.27,4.24Z" fill="#732a09" stroke-width="0"></path></g></svg>